<svg width="323" height="370" viewBox="0 0 323 370" fill="none" xmlns="http://www.w3.org/2000/svg">
<path d="M166.212 1.34894C163.096 -0.449606 159.258 -0.449689 156.143 1.34894L5.03516 88.5902C1.91965 90.3889 3.05176e-05 93.7134 0 97.3109V271.793C0 275.391 1.91962 278.715 5.03516 280.514L156.143 367.755C159.258 369.554 163.096 369.554 166.212 367.755L242.043 323.974L195.9 271.431C159.42 286.922 115.645 279.926 85.8887 250.171C65.7857 230.068 56.1049 203.554 56.6758 177.227C56.8043 171.816 63.1031 168.801 67.4863 171.999L114.561 206.352C118.159 208.979 122.957 209.321 126.897 207.237L161.05 189.175C164.234 187.49 166.461 184.435 167.089 180.894L173.857 142.86C174.643 138.462 172.843 134.007 169.245 131.38L121.812 96.7708C117.429 93.5726 118.386 86.6764 123.512 84.8773C162.333 71.2419 207.85 82.1789 235.834 117.83C258.421 146.629 262.704 185.765 248.869 218.547L318.512 279.705C320.917 277.813 322.354 274.906 322.354 271.793V97.3109C322.354 93.7134 320.435 90.3889 317.319 88.5902L166.212 1.34894Z" fill="#F5F7FA"/>
</svg>
