<svg width="323" height="370" viewBox="0 0 323 370" fill="none" xmlns="http://www.w3.org/2000/svg">
<path d="M166.212 1.34903C163.096 -0.449678 159.258 -0.449678 156.143 1.34903L5.03516 88.5902C1.91977 90.3889 0.00012207 93.7127 0 97.31V271.792C0 275.39 1.91962 278.714 5.03516 280.513L156.143 367.754C159.258 369.553 163.096 369.553 166.212 367.754L242.043 323.974L195.9 271.431C159.421 286.922 115.645 279.926 85.8887 250.171C65.7855 230.068 56.1049 203.554 56.6758 177.226C56.8044 171.815 63.1031 168.801 67.4863 171.998L114.561 206.351C118.159 208.978 122.957 209.32 126.897 207.236L161.05 189.175C164.234 187.49 166.461 184.435 167.089 180.894L173.857 142.859C174.643 138.461 172.843 134.006 169.245 131.379L121.812 96.7699C117.43 93.5716 118.386 86.6754 123.512 84.8764C162.333 71.241 207.85 82.178 235.834 117.83C258.422 146.628 262.705 185.764 248.869 218.546L318.512 279.704C320.917 277.812 322.354 274.905 322.354 271.792V97.31C322.354 93.7126 320.435 90.3889 317.319 88.5902L166.212 1.34903Z" fill="#153D7D"/>
</svg>
