<svg width="479" height="563" viewBox="0 0 479 563" fill="none" xmlns="http://www.w3.org/2000/svg">
<path fill-rule="evenodd" clip-rule="evenodd" d="M233 1.33765C217.782 9.20902 81.898 88.4425 79.75 90.6971L77 93.5845V184.034V274.483L79.75 277.428C81.976 279.811 136.261 311.595 224.5 362.179C230.55 365.647 236.537 368.487 237.804 368.49C240.487 368.496 240.738 368.359 282 344.446C299.325 334.405 314.509 325.698 315.742 325.097C316.975 324.496 317.984 323.78 317.984 323.505C317.983 323.037 277.913 277.108 274.138 273.248C272.487 271.56 272.147 271.573 266.455 273.548C254.7 277.626 247.007 278.814 232.5 278.788C220.806 278.768 216.934 278.351 208.989 276.257C190.973 271.51 176.851 263.46 163.167 250.136C147.17 234.559 137.801 216.411 134.461 194.531C132.388 180.947 132.534 175.002 135 172.536C139.265 168.272 141.62 169.403 166.768 187.783C194.65 208.162 193.513 207.449 198.182 207.494C202.879 207.539 239.252 188.604 241.729 184.824C242.628 183.453 244.993 173.02 247.075 161.242C250.247 143.303 250.636 139.593 249.655 136.621C248.675 133.651 245.019 130.583 225.5 116.345C194.076 93.4245 196 95.0722 196 91.082C196 86.6199 197.808 85.0032 205.423 82.6507C235.623 73.3257 270.948 80.4512 296.72 101.067C312.727 113.871 325.311 133.522 330.643 154.04C335.386 172.291 334.21 196.715 327.803 213.014L325.844 217.998L328.685 220.512C330.248 221.894 345.866 235.601 363.391 250.972L395.254 278.918L397.127 276.605C398.927 274.384 399 270.781 398.996 184.673C398.993 99.1263 398.908 94.9162 397.137 92.0528C395.714 89.7533 377.424 78.7565 318.728 44.9116C276.624 20.6326 240.898 0.489829 239.338 0.1479C237.502 -0.253017 235.265 0.166896 233 1.33765ZM0 485.971V560.455H21.5H43V533.461V506.467H69H95V489.97V473.473H69H43V458.976V444.479H73H103V427.983V411.486H51.5H0V485.971ZM120 485.971V560.455H140.5H161V485.971V411.486H140.5H120V485.971ZM177.633 412.736C178.047 413.424 186.337 426.808 196.055 442.48C205.774 458.152 214.628 472.458 215.731 474.271L217.736 477.569L228.909 459.897C235.054 450.178 239.951 441.917 239.791 441.539C239.631 441.161 235.927 434.245 231.559 426.169L223.618 411.486H200.25C181.821 411.486 177.041 411.75 177.633 412.736ZM270.26 412.736C268.474 415.002 177 559.396 177 559.95C177 560.247 187.911 560.37 201.247 560.223L225.494 559.955L237.241 541.461C243.701 531.289 249.328 522.865 249.744 522.74C250.16 522.615 255.633 531.05 261.908 541.484L273.315 560.455H296.773H320.23L318.783 558.206C314.311 551.25 274.842 486.223 274.41 485.098C273.911 483.796 277.869 477.265 305.831 433.248C313.074 421.846 319 412.286 319 412.002C319 411.718 308.255 411.486 295.122 411.486C277.212 411.486 270.999 411.798 270.26 412.736ZM379.493 412.719C377.532 418.159 333 560.553 333 561.383C333 562.114 340.085 562.451 355.25 562.442L377.5 562.43L402.9 548.929C416.871 541.503 428.379 535.548 428.474 535.695C428.569 535.841 429.659 539.56 430.895 543.959C432.131 548.358 433.817 554.319 434.642 557.206L436.142 562.455H457.571C473.056 562.455 479 562.136 479 561.305C479 560.292 452.449 475.298 433.605 415.985L432.334 411.986L406.142 411.719C385.718 411.511 379.849 411.732 379.493 412.719ZM400.707 492.143C396.491 505.176 393.199 515.998 393.393 516.191C393.639 516.437 414.494 504.779 418.685 502.052C419.069 501.802 409.746 469.939 409.075 469.21C408.688 468.79 404.922 479.109 400.707 492.143Z" fill="white"/>
</svg>
